<svg xmlns="http://www.w3.org/2000/svg" width="127" height="41" viewBox="0 0 127 41" fill="none"><mask id="mask0_2089_2720" style="mask-type:luminance" maskUnits="userSpaceOnUse" x="0" y="1" width="127" height="39"><path d="M127 1.95801H0V39.0443H127V1.95801Z" fill="white"></path></mask><g mask="url(#mask0_2089_2720)"><path d="M97.9476 12.9486L97.9074 12.8762C97.7385 12.5665 97.4609 12.0556 96.604 12.0596C95.7311 12.0717 95.4092 12.5262 95.1759 12.9527C93.3697 16.2594 85.3965 30.9909 85.3965 30.9909C85.3965 30.9909 87.8021 30.9909 88.1119 30.9909C89.1618 30.9909 89.6084 30.6973 89.9543 30.0174C90.0227 29.8806 90.1233 29.6916 90.2158 29.5146C90.606 28.7703 90.9882 28.0663 91.3341 27.4066C91.3341 27.3986 91.3663 27.3261 91.4508 27.3181C91.491 27.3181 91.9014 27.3181 91.9899 27.3181H98.7442C98.7442 27.3181 97.6982 24.9004 97.6258 24.7274C97.473 24.3452 97.2557 23.955 96.2782 23.9751H93.2611L96.5678 17.6111C96.5678 17.6111 102.851 29.4261 103.31 30.1783C103.523 30.5283 103.998 30.9789 104.509 30.9869C104.819 30.9909 107.783 30.9909 107.783 30.9909C107.783 30.9909 100.2 17.0197 97.9476 12.9486Z" fill="#003158"></path><path d="M117.454 27.8168C116.649 27.841 115.478 27.5795 114.911 27.3663C112.606 26.4974 111.146 24.5785 110.892 22.378C110.703 20.7206 111.049 19.5661 111.745 18.3592C112.019 17.8845 112.465 17.3495 112.98 16.8949C113.58 16.3599 114.36 15.8892 115.052 15.6438C117.647 14.7105 120.463 15.4668 122.152 16.907C122.349 17.0719 122.591 17.3173 122.752 17.5346C123.283 18.2546 124.067 18.2426 124.067 18.2426H127.008C126.65 16.0501 124.502 13.5962 121.621 12.6468C120.829 12.3854 119.875 12.144 118.902 12.0877C117.329 11.9951 115.064 12.0877 112.88 13.037C111.596 13.5922 109.931 14.6985 108.797 16.2995C107.26 18.4678 106.592 21.2838 107.497 24.3331C108.08 26.2922 109.863 28.6254 112.489 29.8886C114.167 30.6932 115.961 30.9989 117.631 30.9989C119.3 30.9989 121.191 30.7253 122.748 29.953C124.827 28.9151 126.268 27.5352 126.859 25.3267C126.915 25.1175 126.96 24.9003 127 24.675H124.071C123.347 24.675 122.925 25.0974 122.74 25.3991C122.599 25.6244 122.518 25.8014 122.233 26.0669C121.239 26.9801 119.867 27.7122 118.001 27.8249" fill="#003158"></path><path d="M82.1136 20.9941C83.3165 19.9804 83.8837 18.146 83.5377 16.4443C83.1757 14.6542 81.9567 13.3789 80.2953 12.6106C79.0925 12.0514 76.6748 12.0675 76.6748 12.0675C76.6748 12.0675 68.07 12.0635 67.897 12.0635C67.1931 12.0635 66.8994 12.2163 66.6017 12.4939C66.2919 12.7836 66.2839 13.1697 66.2879 13.9622V14.3846C66.2839 15.8731 66.2879 17.3736 66.2879 18.854C66.2879 21.5291 66.2879 26.7709 66.2879 29.1886C66.2879 29.9971 66.3684 30.1943 66.3965 30.2667C66.485 30.5322 66.9074 30.9666 67.4465 30.9948C67.4545 30.9948 67.5792 30.9948 68.0499 30.9948C70.3389 30.9908 76.892 30.9948 78.9396 30.9948C80.9873 30.9948 82.7653 29.8483 83.4291 28.8869C85.1307 26.4289 84.7767 23.0296 82.1177 21.0022M70.2142 15.153C70.9302 15.153 76.703 15.153 76.703 15.153H77.3627C77.3627 15.153 77.9179 15.1892 78.123 15.2375C78.642 15.3581 79.2052 15.6035 79.6074 16.1909C79.8729 16.5771 80.0499 16.9834 79.9695 17.7759C79.9413 18.0333 79.7523 18.4879 79.535 18.7454C79.2373 19.0953 78.6701 19.6384 77.5598 19.6384C75.6731 19.6384 70.7854 19.6384 70.2102 19.6384L70.2222 15.161L70.2142 15.153ZM80.774 24.9727C80.774 24.9968 80.8465 25.6847 80.6453 26.1554C80.4482 26.618 79.9936 27.0283 79.9212 27.0887C79.4345 27.5111 78.7828 27.7162 78.0265 27.7363C77.3989 27.7564 70.2102 27.7404 70.2102 27.7404V22.8607C70.2102 22.8607 77.5679 22.8728 77.8253 22.8687C79.185 22.8647 79.7965 23.3032 80.2631 23.8342C80.2873 23.8624 80.6654 24.3169 80.7781 24.9727" fill="#003158"></path><path d="M54.1553 12.9486L54.115 12.8762C53.9461 12.5665 53.6685 12.0556 52.8117 12.0596C51.9387 12.0717 51.6169 12.5262 51.3836 12.9527C49.5773 16.2594 41.6001 30.9909 41.6001 30.9909C41.6001 30.9909 44.0057 30.9909 44.3155 30.9909C45.3654 30.9909 45.812 30.6973 46.1579 30.0174C46.2263 29.8806 46.3269 29.6916 46.4194 29.5146C46.8096 28.7703 47.1918 28.0663 47.5378 27.4066C47.5378 27.3986 47.5699 27.3261 47.6544 27.3181C47.6906 27.3181 48.105 27.3181 48.1935 27.3181H54.9478C54.9478 27.3181 53.8978 24.9004 53.8294 24.7274C53.6766 24.3452 53.4634 23.955 52.4818 23.9751H49.4647L52.7714 17.6111C52.7714 17.6111 59.0551 29.4261 59.5137 30.1783C59.7269 30.5283 60.2016 30.9789 60.7125 30.9869C61.0222 30.9909 63.987 30.9909 63.987 30.9909C63.987 30.9909 56.404 17.0197 54.1513 12.9486" fill="#003158"></path></g><mask id="mask1_2089_2720" style="mask-type:luminance" maskUnits="userSpaceOnUse" x="0" y="0" width="20" height="30"><path d="M3.33038 7.72405C1.49889 8.76618 0 11.3249 0 13.4092V27.3914C8.61197 31.4092 15.3437 29.8039 19.7073 27.7374C19.4812 27.7551 19.3747 27.7906 19.1486 27.8127C13.9335 28.3449 11.0687 24.8815 11.0687 20.4779C11.0687 20.4336 11.1752 15.764 11.7384 12.7839C12.7361 7.49789 14.337 3.14755 17.2328 0.0566406L3.33038 7.72405Z" fill="white"></path></mask><g mask="url(#mask1_2089_2720)"><path d="M11.7664 -9.60341L-15.377 12.6924L7.94059 41.0796L35.0839 18.7838L11.7664 -9.60341Z" fill="url(#paint0_linear_2089_2720)"></path></g><mask id="mask2_2089_2720" style="mask-type:luminance" maskUnits="userSpaceOnUse" x="13" y="0" width="25" height="15"><path d="M13.8271 14.3938C14.2085 13.3872 14.9092 12.6998 15.8538 12.0435C20.5766 8.77963 27.9779 8.60669 37.8937 11.5779C37.3526 10.0036 36.3549 8.56234 34.9003 7.72421C34.9003 7.72421 21.9957 0.402697 21.7518 0.30957C16.0577 4.37165 14.5012 10.3672 13.8316 14.3938" fill="white"></path></mask><g mask="url(#mask2_2089_2720)"><path d="M26.9934 -11.6674L6.81836 6.69043L24.7285 26.3735L44.9036 8.0156L26.9934 -11.6674Z" fill="url(#paint1_linear_2089_2720)"></path></g><mask id="mask3_2089_2720" style="mask-type:luminance" maskUnits="userSpaceOnUse" x="18" y="11" width="21" height="30"><path d="M24.1552 11.959C22 11.959 20.0842 12.3803 18.4878 13.1208H18.5233C18.7539 13.1075 19.0421 13.0676 19.2816 13.0676C23.7383 13.0676 27.2284 16.0787 27.2284 20.4823C27.2284 20.7084 27.1663 25.2184 26.6474 28.1497C25.7073 33.4667 23.9335 37.8348 20.9712 40.9302C21.5077 40.8016 34.9002 33.2761 34.9002 33.2761C36.7317 32.2339 38.2306 29.6752 38.2306 27.5909V15.0055C32.7627 12.0432 28.4035 11.959 24.7805 11.959C24.5721 11.959 24.3636 11.959 24.1552 11.959Z" fill="white"></path></mask><g mask="url(#mask3_2089_2720)"><path d="M29.2836 2.13199L4.06396 25.0801L27.4269 50.7556L52.6465 27.8075L29.2836 2.13199Z" fill="url(#paint2_linear_2089_2720)"></path></g><mask id="mask4_2089_2720" style="mask-type:luminance" maskUnits="userSpaceOnUse" x="1" y="26" width="24" height="15"><path d="M22.5367 28.8725C17.9381 32.3093 11.029 33.4534 1.01123 30.8459C1.6099 32.4024 2.17753 33.0942 3.66755 33.8791C3.66755 33.8791 16.7629 40.8547 17.0112 40.939C22.55 36.6729 23.9514 30.4955 24.4746 26.4512C24.1287 27.4711 23.4547 28.1851 22.5367 28.8725Z" fill="white"></path></mask><g mask="url(#mask4_2089_2720)"><path d="M7.02179 16.2079L-5.31152 37.2295L18.4678 51.1808L30.8012 30.1592L7.02179 16.2079Z" fill="url(#paint3_linear_2089_2720)"></path></g><mask id="mask5_2089_2720" style="mask-type:luminance" maskUnits="userSpaceOnUse" x="1" y="26" width="24" height="15"><path d="M22.5367 28.8725C17.9381 32.3093 11.029 33.4534 1.01123 30.8459C1.6099 32.4024 2.17753 33.0942 3.66755 33.8791C3.66755 33.8791 16.7629 40.8547 17.0112 40.939C22.55 36.6729 23.9514 30.4955 24.4746 26.4512C24.1287 27.4711 23.4547 28.1851 22.5367 28.8725Z" fill="white"></path></mask><g mask="url(#mask5_2089_2720)"><path d="M7.02179 16.2079L-5.31152 37.2295L18.4678 51.1808L30.8012 30.1592L7.02179 16.2079Z" fill="url(#paint4_linear_2089_2720)"></path></g><defs><linearGradient id="paint0_linear_2089_2720" x1="3.22941" y1="7.71589" x2="19.6902" y2="27.7556" gradientUnits="userSpaceOnUse"><stop stop-color="#007BC3"></stop><stop offset="0.17" stop-color="#0078BF"></stop><stop offset="0.3" stop-color="#0071B5"></stop><stop offset="0.42" stop-color="#0064A4"></stop><stop offset="0.54" stop-color="#00528C"></stop><stop offset="0.65" stop-color="#003B6D"></stop><stop offset="0.76" stop-color="#002048"></stop><stop offset="0.82" stop-color="#000E30"></stop><stop offset="1" stop-color="#000E30"></stop></linearGradient><linearGradient id="paint1_linear_2089_2720" x1="20.9813" y1="0.836057" x2="33.9879" y2="15.1301" gradientUnits="userSpaceOnUse"><stop stop-color="#000E30"></stop><stop offset="0.22" stop-color="#00305E"></stop><stop offset="0.47" stop-color="#005089"></stop><stop offset="0.69" stop-color="#0067A8"></stop><stop offset="0.87" stop-color="#0075BC"></stop><stop offset="1" stop-color="#007BC3"></stop></linearGradient><linearGradient id="paint2_linear_2089_2720" x1="17.8855" y1="13.6666" x2="35.4345" y2="32.9528" gradientUnits="userSpaceOnUse"><stop stop-color="#400000"></stop><stop offset="0.48" stop-color="#9F4C0F"></stop><stop offset="0.83" stop-color="#DE8019"></stop><stop offset="1" stop-color="#F7941D"></stop></linearGradient><linearGradient id="paint3_linear_2089_2720" x1="2.40327" y1="28.4704" x2="19.8257" y2="38.6921" gradientUnits="userSpaceOnUse"><stop stop-color="#F7941D"></stop><stop offset="0.36" stop-color="#F5921C"></stop><stop offset="0.51" stop-color="#ED8C1B"></stop><stop offset="0.62" stop-color="#E18219"></stop><stop offset="0.71" stop-color="#D07416"></stop><stop offset="0.78" stop-color="#B96213"></stop><stop offset="0.85" stop-color="#9D4B0E"></stop><stop offset="0.91" stop-color="#7C3009"></stop><stop offset="0.97" stop-color="#561203"></stop><stop offset="1" stop-color="#400000"></stop></linearGradient><linearGradient id="paint4_linear_2089_2720" x1="2.40327" y1="28.4704" x2="19.8257" y2="38.6921" gradientUnits="userSpaceOnUse"><stop stop-color="#F7941D"></stop><stop offset="0.36" stop-color="#F5921C"></stop><stop offset="0.51" stop-color="#ED8C1B"></stop><stop offset="0.62" stop-color="#E18219"></stop><stop offset="0.71" stop-color="#D07416"></stop><stop offset="0.78" stop-color="#B96213"></stop><stop offset="0.85" stop-color="#9D4B0E"></stop><stop offset="0.91" stop-color="#7C3009"></stop><stop offset="0.97" stop-color="#561203"></stop><stop offset="1" stop-color="#400000"></stop></linearGradient></defs></svg>