<svg width="19" height="19" viewBox="0 0 19 19" fill="none" xmlns="http://www.w3.org/2000/svg">
<g clip-path="url(#clip0_13417_11060)">
<path d="M12.3573 10.8329C14.2944 8.16495 14.0621 4.40047 11.6584 1.99634C8.99629 -0.665445 4.66444 -0.665445 2.0027 1.99634C-0.659753 4.65875 -0.659753 8.98989 2.0027 11.6523C4.40646 14.0561 8.17094 14.2884 10.8386 12.3516L11.3664 12.8787L12.8847 11.3603L12.3573 10.8329ZM10.3345 10.3288C8.39942 12.2635 5.26164 12.2638 3.32628 10.3288C1.39095 8.39344 1.39095 5.25532 3.32628 3.32029C5.26168 1.38526 8.39942 1.38526 10.3345 3.32029C12.2698 5.25532 12.2698 8.39344 10.3345 10.3288Z" fill="#A4A4A4"/>
<path d="M4.05628 4.42407C3.05144 5.71503 2.96809 7.49102 3.80557 8.86287C3.88506 8.99235 4.05454 9.03369 4.18439 8.95416C4.3139 8.87468 4.35487 8.7052 4.27575 8.57572V8.57602C3.55631 7.39965 3.62819 5.86844 4.49031 4.76225C4.58405 4.64246 4.56253 4.46916 4.44237 4.37613C4.32262 4.28243 4.14935 4.30395 4.05628 4.42407Z" fill="#A4A4A4"/>
<path d="M18.6106 16.2758L13.4836 11.696L11.7031 13.4766L16.2825 18.6039C16.7482 19.2063 17.5867 19.1178 18.3401 18.3643C19.0932 17.6112 19.2134 16.7414 18.6106 16.2758Z" fill="#A4A4A4"/>
</g>
<defs>
<clipPath id="clip0_13417_11060">
<rect width="19" height="19" fill="white"/>
</clipPath>
</defs>
</svg>
